<svg width="1200" height="1200" xmlns="http://www.w3.org/2000/svg">
	<svg x="0" y="0" stroke="black">
		<rect x="0" y="0" width="100" height="100" stroke="black" fill="none" />
		<rect x="20" y="20" width="10" height="10" fill="none" stroke-width="1px" stroke="green" />
		<rect x="10" y="10" width="40" height="40" fill="none" stroke-width="3px" stroke="green" /> <!-- outer ring -->
	</svg>
	<svg x="120" y="0">
		<rect x="0" y="0" width="100" height="100" stroke="black" fill="none" />
		<rect x="10" y="10" width="40" height="40" fill="none" stroke-width="1px" stroke="green" />
		<rect x="20" y="20" width="10" height="10" fill="none" stroke-width="3px" stroke="green" />	
	</svg>

	<!-- out -->
	<svg x="0" y="120">
		<rect x="0" y="0" width="100" height="100" stroke="black" fill="none" />
		<rect x="30" y="10" width="10" height="10" fill="none" stroke-width="1px" stroke="green" />
		<rect x="45" y="10" width="50" height="50" fill="none" stroke-width="3px" stroke="green" />	
	</svg>
	<svg x="120" y="120">
		<rect x="0" y="0" width="100" height="100" stroke="black" fill="none" />
		<rect x="70" y="10" width="10" height="10" fill="none" stroke-width="1px" stroke="green" />
		<rect x="10" y="10" width="50" height="50" fill="none" stroke-width="3px" stroke="green" />	
	</svg>
	<svg x="240" y="120">
		<rect x="0" y="0" width="100" height="100" stroke="black" fill="none" />
		<rect x="70" y="80" width="25" height="15" fill="none" stroke-width="1px" stroke="green" />
		<rect x="10" y="10" width="50" height="50" fill="none" stroke-width="3px" stroke="green" />	
	</svg>
	<svg x="360" y="120">
		<rect x="0" y="0" width="100" height="100" stroke="black" fill="none" />
		<rect x="70" y="80" width="10" height="10" fill="none" stroke-width="1px" stroke="green" />
		<rect x="10" y="10" width="70" height="50" fill="none" stroke-width="3px" stroke="green" />	
	</svg>
	<svg x="480" y="120">
		<rect x="0" y="0" width="100" height="100" stroke="black" fill="none" />
		<rect x="10" y="70" width="20" height="20" fill="none" stroke-width="1px" stroke="green" />
		<rect x="10" y="10" width="70" height="50" fill="none" stroke-width="3px" stroke="green" />	
	</svg>
	<svg x="600" y="120">
		<rect x="0" y="0" width="100" height="100" stroke="black" fill="none" />
		<rect x="10" y="10" width="10" height="20" fill="none" stroke-width="1px" stroke="green" />
		<rect x="10" y="40" width="70" height="50" fill="none" stroke-width="3px" stroke="green" />	
	</svg>
	<svg x="720" y="120">
		<rect x="0" y="0" width="100" height="100" stroke="black" fill="none" />
		<rect x="60" y="10" width="20" height="10" fill="none" stroke-width="1px" stroke="green" />
		<rect x="10" y="40" width="70" height="50" fill="none" stroke-width="3px" stroke="green" />	
	</svg>
	<svg x="840" y="120">
		<rect x="0" y="0" width="100" height="100" stroke="black" fill="none" />
		<rect x="60" y="10" width="20" height="80" fill="none" stroke-width="1px" stroke="green" />
		<rect x="10" y="10" width="30" height="80" fill="none" stroke-width="3px" stroke="green" />	
	</svg>
	<svg x="960" y="120">
		<rect x="0" y="0" width="100" height="100" stroke="black" fill="none" />
		<rect x="60" y="10" width="20" height="50" fill="none" stroke-width="1px" stroke="green" />
		<rect x="10" y="10" width="30" height="10" fill="none" stroke-width="3px" stroke="green" />	
	</svg>

	<!-- in -->
	<svg x="0" y="240">
		<rect x="0" y="0" width="100" height="100" stroke="black" fill="none" />
		<rect x="10" y="10" width="20" height="10" fill="none" stroke-width="1px" stroke="green" />
		<rect x="10" y="10" width="50" height="50" fill="none" stroke-width="3px" stroke="green" />	
	</svg>
	<svg x="120" y="240">
		<rect x="0" y="0" width="100" height="100" stroke="black" fill="none" />
		<rect x="10" y="10" width="60" height="60" fill="none" stroke-width="1px" stroke="green" />
		<rect x="10" y="10" width="50" height="50" fill="none" stroke-width="3px" stroke="green" />	
	</svg>
	<svg x="240" y="240">
		<rect x="0" y="0" width="100" height="100" stroke="black" fill="none" />
		<rect x="10" y="10" width="60" height="60" fill="none" stroke-width="1px" stroke="green" />
		<rect x="20" y="20" width="50" height="50" fill="none" stroke-width="3px" stroke="green" />	
	</svg>
	<svg x="360" y="240">
		<rect x="0" y="0" width="100" height="100" stroke="black" fill="none" />
		<rect x="30" y="15" width="60" height="60" fill="none" stroke-width="1px" stroke="green" />
		<rect x="10" y="10" width="50" height="50" fill="none" stroke-width="3px" stroke="green" />	
	</svg>
	<svg x="480" y="240">
		<rect x="0" y="0" width="100" height="100" stroke="black" fill="none" />
		<rect x="30" y="15" width="60" height="60" fill="none" stroke-width="1px" stroke="green" />
		<rect x="30" y="10" width="50" height="50" fill="none" stroke-width="3px" stroke="green" />	
	</svg>
	<svg x="600" y="240">
		<rect x="0" y="0" width="100" height="100" stroke="black" fill="none" />
		<rect x="20" y="15" width="30" height="30" fill="none" stroke-width="1px" stroke="green" />
		<rect x="30" y="10" width="50" height="50" fill="none" stroke-width="3px" stroke="green" />	
	</svg>
	<svg x="720" y="240">
		<rect x="0" y="0" width="100" height="100" stroke="black" fill="none" />
		<rect x="60" y="15" width="30" height="30" fill="none" stroke-width="1px" stroke="green" />
		<rect x="20" y="10" width="50" height="50" fill="none" stroke-width="3px" stroke="green" />	
	</svg>
	<svg x="840" y="240">
		<rect x="0" y="0" width="100" height="100" stroke="black" fill="none" />
		<rect x="30" y="45" width="30" height="30" fill="none" stroke-width="1px" stroke="green" />
		<rect x="20" y="10" width="50" height="50" fill="none" stroke-width="3px" stroke="green" />	
	</svg>
	<svg x="960" y="240">
		<rect x="0" y="0" width="100" height="100" stroke="black" fill="none" />
		<rect x="30" y="25" width="30" height="30" fill="none" stroke-width="1px" stroke="green" />
		<rect x="20" y="40" width="50" height="50" fill="none" stroke-width="3px" stroke="green" />	
	</svg>
	<svg x="1080" y="240">
		<rect x="0" y="0" width="100" height="100" stroke="black" fill="none" />
		<rect x="60" y="25" width="30" height="30" fill="none" stroke-width="1px" stroke="green" />
		<rect x="20" y="40" width="50" height="50" fill="none" stroke-width="3px" stroke="green" />	
	</svg>
</svg>
